<?xml version="1.0" encoding="UTF-8" standalone="no"?>
<svg
   xmlns:dc="http://purl.org/dc/elements/1.1/"
   xmlns:cc="http://creativecommons.org/ns#"
   xmlns:rdf="http://www.w3.org/1999/02/22-rdf-syntax-ns#"
   xmlns:svg="http://www.w3.org/2000/svg"
   xmlns="http://www.w3.org/2000/svg"
   xmlns:sodipodi="http://sodipodi.sourceforge.net/DTD/sodipodi-0.dtd"
   xmlns:inkscape="http://www.inkscape.org/namespaces/inkscape"
   height="512pt"
   viewBox="0 0 512.001 512"
   width="512pt"
   version="1.1"
   id="svg16"
   sodipodi:docname="favicon.svg"
   inkscape:version="1.0.2 (e86c870879, 2021-01-15)">
  <metadata
     id="metadata22">
    <rdf:RDF>
      <cc:Work
         rdf:about="">
        <dc:format>image/svg+xml</dc:format>
        <dc:type
           rdf:resource="http://purl.org/dc/dcmitype/StillImage" />
      </cc:Work>
    </rdf:RDF>
  </metadata>
  <defs
     id="defs20" />
  <sodipodi:namedview
     pagecolor="#ffffff"
     bordercolor="#666666"
     borderopacity="1"
     objecttolerance="10"
     gridtolerance="10"
     guidetolerance="10"
     inkscape:pageopacity="0"
     inkscape:pageshadow="2"
     inkscape:window-width="1920"
     inkscape:window-height="1036"
     id="namedview18"
     showgrid="false"
     inkscape:zoom="0.61669922"
     inkscape:cx="-15.937354"
     inkscape:cy="452.55743"
     inkscape:window-x="0"
     inkscape:window-y="0"
     inkscape:window-maximized="1"
     inkscape:current-layer="svg16" />
  <path
     d="m100.496094 125.722656c13.910156 0 25.222656-11.316406 25.222656-25.226562 0-13.90625-11.3125-25.222656-25.222656-25.222656-13.90625 0-25.222656 11.316406-25.222656 25.226562 0 13.90625 11.316406 25.222656 25.222656 25.222656zm0-35.445312c5.636718 0 10.222656 4.582031 10.222656 10.222656 0 5.636719-4.585938 10.222656-10.222656 10.222656-5.636719 0-10.21875-4.585937-10.21875-10.222656 0-5.640625 4.582031-10.222656 10.21875-10.222656zm0 0"
     id="path2" />
  <path
     d="m411.503906 75.273438c-13.90625 0-25.222656 11.316406-25.222656 25.226562 0 13.90625 11.3125 25.222656 25.222656 25.222656s25.222656-11.316406 25.222656-25.222656c0-13.910156-11.316406-25.226562-25.222656-25.226562zm0 35.445312c-5.636718 0-10.222656-4.582031-10.222656-10.222656 0-5.636719 4.585938-10.222656 10.222656-10.222656 5.636719 0 10.222656 4.585937 10.222656 10.222656 0 5.640625-4.585937 10.222656-10.222656 10.222656zm0 0"
     id="path4" />
  <path
     d="m100.496094 386.28125c-13.90625 0-25.222656 11.3125-25.222656 25.222656s11.316406 25.222656 25.222656 25.222656c13.910156 0 25.222656-11.3125 25.222656-25.222656s-11.3125-25.222656-25.222656-25.222656zm0 35.445312c-5.636719 0-10.21875-4.585937-10.21875-10.222656 0-5.636718 4.582031-10.222656 10.21875-10.222656 5.636718 0 10.222656 4.585938 10.222656 10.222656 0 5.636719-4.585938 10.222656-10.222656 10.222656zm0 0"
     id="path6" />
  <path
     d="m411.503906 386.28125c-13.90625 0-25.222656 11.3125-25.222656 25.222656s11.3125 25.222656 25.222656 25.222656 25.222656-11.3125 25.222656-25.222656-11.316406-25.222656-25.222656-25.222656zm0 35.445312c-5.636718 0-10.222656-4.585937-10.222656-10.222656 0-5.636718 4.585938-10.222656 10.222656-10.222656 5.636719 0 10.222656 4.585938 10.222656 10.222656 0 5.636719-4.585937 10.222656-10.222656 10.222656zm0 0"
     id="path8" />
  <path
     d="m504.5 127.136719c4.144531 0 7.5-3.359375 7.5-7.5s-3.355469-7.5-7.5-7.5h-39.761719v-20.785157c0-24.3125-19.777343-44.089843-44.085937-44.089843h-20.789063v-39.761719c0-4.140625-3.355469-7.5-7.5-7.5-4.140625 0-7.5 3.359375-7.5 7.5v39.761719h-53.179687v-39.761719c0-4.140625-3.359375-7.5-7.503906-7.5-4.140626 0-7.5 3.359375-7.5 7.5v39.761719h-53.179688v-39.761719c0-4.140625-3.355469-7.5-7.5-7.5s-7.5 3.359375-7.5 7.5v39.761719h-53.183594v-39.761719c0-4.140625-3.355468-7.5-7.5-7.5-4.140625 0-7.5 3.359375-7.5 7.5v39.761719h-53.179687v-39.761719c0-4.140625-3.359375-7.5-7.5-7.5-4.144531 0-7.5 3.359375-7.5 7.5v39.761719h-20.785157c-24.3125 0-44.089843 19.777343-44.089843 44.089843v20.785157h-39.761719c-4.144531 0-7.5 3.359375-7.5 7.5s3.355469 7.5 7.5 7.5h39.761719v53.183593h-39.761719c-4.144531 0-7.5 3.355469-7.5 7.5 0 4.140626 3.355469 7.5 7.5 7.5h39.761719v53.179688h-39.761719c-4.144531 0-7.5 3.359375-7.5 7.5 0 4.144531 3.355469 7.5 7.5 7.5h39.761719v53.183594h-39.761719c-4.144531 0-7.5 3.355468-7.5 7.5 0 4.144531 3.355469 7.5 7.5 7.5h39.761719v53.179687h-39.761719c-4.144531 0-7.5 3.359375-7.5 7.503907 0 4.140624 3.355469 7.5 7.5 7.5h39.761719v20.785156c0 24.308594 19.777343 44.085937 44.089843 44.085937h20.785157v39.761719c0 4.144531 3.355469 7.5 7.5 7.5s7.5-3.355469 7.5-7.5v-39.761719h53.179687v39.761719c0 4.144531 3.359375 7.5 7.503906 7.5 4.140626 0 7.5-3.355469 7.5-7.5v-39.761719h53.179688v39.761719c0 4.144531 3.355469 7.5 7.5 7.5s7.5-3.355469 7.5-7.5v-39.761719h53.183594v39.761719c0 4.144531 3.355468 7.5 7.5 7.5 4.140625 0 7.5-3.355469 7.5-7.5v-39.761719h53.183594v39.761719c0 4.144531 3.355468 7.5 7.5 7.5 4.140624 0 7.5-3.355469 7.5-7.5v-39.761719h20.785156c24.3125 0 44.089844-19.777343 44.089844-44.085937v-20.785156h39.757812c4.144531 0 7.5-3.359376 7.5-7.5 0-4.144532-3.355469-7.503907-7.5-7.503907h-39.757812v-53.179687h39.757812c4.144531 0 7.5-3.355469 7.5-7.5 0-4.144532-3.355469-7.5-7.5-7.5h-39.757812v-53.183594h39.757812c4.144531 0 7.5-3.355469 7.5-7.5 0-4.140625-3.355469-7.5-7.5-7.5h-39.757812v-53.179688h39.757812c4.144531 0 7.5-3.359374 7.5-7.5 0-4.144531-3.355469-7.5-7.5-7.5h-39.757812v-53.183593zm-83.847656 322.601562h-329.300782c-16.039062 0-29.089843-13.046875-29.089843-29.085937v-329.300782c0-16.039062 13.050781-29.089843 29.089843-29.089843h329.300782c16.035156 0 29.085937 13.050781 29.085937 29.089843v300.992188.019531.019531 28.265626c0 16.042968-13.050781 29.089843-29.085937 29.089843zm0 0"
     id="path10" />
  <path
     d="m399.609375 380.621094c11.601563-4.496094 19.394531-15.875 19.394531-28.316406v-78.804688c0-4.140625-3.359375-7.5-7.5-7.5-4.144531 0-7.5 3.359375-7.5 7.5v78.804688c0 6.296874-3.945312 12.054687-9.816406 14.328124-12.617188 4.894532-22.660156 14.9375-27.554688 27.558594-2.273437 5.867188-8.03125 9.8125-14.328124 9.8125h-192.609376c-6.296874 0-12.054687-3.941406-14.328124-9.8125-4.894532-12.621094-14.9375-22.664062-27.554688-27.558594-5.871094-2.273437-9.816406-8.03125-9.816406-14.324218v-192.613282c0-6.292968 3.945312-12.054687 9.816406-14.328124 12.617188-4.890626 22.660156-14.9375 27.554688-27.554688 2.273437-5.871094 8.03125-9.816406 14.328124-9.816406h78.804688c4.140625 0 7.5-3.355469 7.5-7.5 0-4.140625-3.359375-7.5-7.5-7.5h-78.804688c-12.441406 0-23.820312 7.792968-28.316406 19.394531-3.371094 8.695313-10.292968 15.617187-18.988281 18.988281-11.601563 4.496094-19.394531 15.875-19.394531 28.316406v192.609376c0 12.441406 7.792968 23.820312 19.394531 28.316406 8.695313 3.371094 15.617187 10.292968 18.988281 18.988281 4.496094 11.601563 15.875 19.394531 28.316406 19.394531h192.609376c12.441406 0 23.820312-7.792968 28.316406-19.394531 3.371094-8.695313 10.292968-15.617187 18.988281-18.988281zm0 0"
     id="path12" />
  <path
     d="m273.5 107.996094h78.804688c6.296874 0 12.054687 3.945312 14.328124 9.816406 4.890626 12.617188 14.933594 22.664062 27.554688 27.554688 5.871094 2.273437 9.816406 8.035156 9.816406 14.328124v78.804688c0 4.140625 3.355469 7.5 7.5 7.5 4.140625 0 7.5-3.359375 7.5-7.5v-78.804688c0-12.441406-7.792968-23.820312-19.394531-28.3125-8.695313-3.375-15.617187-10.296874-18.988281-18.992187-4.496094-11.597656-15.875-19.390625-28.316406-19.390625h-78.804688c-4.140625 0-7.5 3.355469-7.5 7.5 0 4.140625 3.359375 7.496094 7.5 7.496094zm0 0"
     id="path14" />
  <path
     d="m 375.07631,359.33183 c 9.61965,-3.72801 16.08133,-13.16304 16.08133,-23.47905 v -65.34234 c 0,-3.43327 -2.78548,-6.21876 -6.21876,-6.21876 -3.4365,0 -6.21876,2.78549 -6.21876,6.21876 v 65.34234 c 0,5.22116 -3.27132,9.99536 -8.13945,11.88042 -10.46177,4.05839 -18.78908,12.3857 -22.84747,22.85071 -1.88507,4.86488 -6.65926,8.13621 -11.88042,8.13621 H 176.14722 c -5.22116,0 -9.99536,-3.26809 -11.88042,-8.13621 -4.05838,-10.46501 -12.38569,-18.79232 -22.84747,-22.85071 -4.86812,-1.88506 -8.13945,-6.65926 -8.13945,-11.87719 V 176.14722 c 0,-5.21793 3.27133,-9.99535 8.13945,-11.88042 10.46178,-4.05515 18.78909,-12.38569 22.84747,-22.84747 1.88506,-4.86812 6.65926,-8.13945 11.88042,-8.13945 h 65.34234 c 3.43327,0 6.21876,-2.78224 6.21876,-6.21876 0,-3.43327 -2.78549,-6.21875 -6.21876,-6.21875 h -65.34234 c -10.31601,0 -19.75104,6.46167 -23.47905,16.08132 -2.79521,7.20988 -8.5346,12.94927 -15.74448,15.74448 -9.61964,3.72801 -16.08132,13.16304 -16.08132,23.47905 v 159.70556 c 0,10.31601 6.46167,19.75104 16.08132,23.47905 7.20988,2.79521 12.94927,8.53461 15.74448,15.74449 3.72802,9.61964 13.16304,16.08132 23.47905,16.08132 h 159.70556 c 10.31601,0 19.75104,-6.46168 23.47905,-16.08132 2.79521,-7.20988 8.53461,-12.94928 15.74448,-15.74449 z m 0,0"
     id="path12-2"
     style="stroke-width:0.829168" />
  <path
     d="m 270.51044,133.27988 h 65.34234 c 5.22116,0 9.99535,3.27133 11.88042,8.13945 4.05515,10.46178 12.38246,18.79232 22.84747,22.84747 4.86812,1.88506 8.13945,6.66249 8.13945,11.88042 v 65.34234 c 0,3.43327 2.78226,6.21876 6.21876,6.21876 3.43328,0 6.21876,-2.78549 6.21876,-6.21876 v -65.34234 c 0,-10.31601 -6.46168,-19.75104 -16.08133,-23.47582 -7.20987,-2.79844 -12.94927,-8.53783 -15.74447,-15.74771 -3.72802,-9.61641 -13.16305,-16.07809 -23.47906,-16.07809 h -65.34234 c -3.43328,0 -6.21876,2.78225 -6.21876,6.21876 0,3.43328 2.78548,6.21552 6.21876,6.21552 z m 0,0"
     id="path14-8"
     style="stroke-width:0.829168" />
</svg>
